<svg width="24" height="24" viewBox="0 0 24 24" fill="none" xmlns="http://www.w3.org/2000/svg">
<path d="M9.88447 9.88447C10.4459 9.323 11.206 9.00524 12 9C13.641 9 15 10.359 15 12C15 13.642 13.641 15 12 15C10.358 15 9 13.642 9 12C9.00524 11.206 9.323 10.4459 9.88447 9.88447Z" fill="black"/>
<path fill-rule="evenodd" clip-rule="evenodd" d="M2.05198 11.684C2.07298 11.617 4.36698 5 12 5C19.633 5 21.927 11.617 21.949 11.684L22.054 12L21.948 12.316C21.927 12.383 19.633 19 12 19C4.36698 19 2.07298 12.383 2.05098 12.316L1.94598 12L2.05198 11.684ZM4.07398 12C4.57598 13.154 6.64898 17 12 17C17.348 17 19.422 13.158 19.926 12C19.424 10.846 17.351 7 12 7C6.65198 7 4.57798 10.842 4.07398 12Z" fill="black"/>
</svg>
