<svg width="24" height="24" viewBox="0 0 24 24" fill="none" xmlns="http://www.w3.org/2000/svg">
<path d="M11 10H9V18H11V10Z" fill="black"/>
<path d="M15 10H13V18H15V10Z" fill="black"/>
<path fill-rule="evenodd" clip-rule="evenodd" d="M5.58579 21.4142C5.21071 21.0391 5 20.5304 5 20V8H3V6H7V4C7 3.46957 7.21071 2.96086 7.58579 2.58579C7.96086 2.21071 8.46957 2 9 2H15C15.5304 2 16.0391 2.21071 16.4142 2.58579C16.7893 2.96086 17 3.46957 17 4V6H21V8H19V20C19 20.5304 18.7893 21.0391 18.4142 21.4142C18.0391 21.7893 17.5304 22 17 22H7C6.46957 22 5.96086 21.7893 5.58579 21.4142ZM15 4H9V6H15V4ZM17 8H7V20H17V8Z" fill="black"/>
</svg>
